<svg width="70" height="70" viewBox="0 0 70 70" fill="none" xmlns="http://www.w3.org/2000/svg">
<path d="M52.5499 23.9177H39.6997V21.3177H52.5499V23.9177Z" fill="#F2353F"/>
<path fill-rule="evenodd" clip-rule="evenodd" d="M17.4443 56.8539V45.6H11.6665C9.38834 45.6 7.5332 43.7449 7.5332 41.4667V19.05C7.5332 15.1647 10.6979 12 14.5832 12H55.4165C59.3018 12 62.4665 15.1647 62.4665 19.05V41.4667C62.4665 43.7449 60.6114 45.6 58.3332 45.6H52.5499V56.8539C52.5499 57.9283 51.6737 58.8044 50.5993 58.8044H19.3949C18.3205 58.8044 17.4443 57.9283 17.4443 56.8539ZM52.5499 32.9506V43.1667H60.0332V19.05C60.0332 16.5051 57.9665 14.4333 55.4165 14.4333H14.5832C12.0372 14.4333 9.96654 16.504 9.96654 19.05V43.1667H17.4443V32.9506C17.4443 31.8762 18.3205 31 19.3949 31H50.5993C51.6737 31 52.5499 31.8762 52.5499 32.9506ZM19.6949 33.2505V56.5539H50.3033L50.299 33.2505H19.6949Z" fill="#F2353F"/>
<path d="M29.9997 45.4667L32.4997 48.8L37.4997 42.1333L43.9997 50.8H25.9997L29.9997 45.4667Z" fill="#F2353F"/>
</svg>
