<svg width="70" height="70" viewBox="0 0 70 70" fill="none" xmlns="http://www.w3.org/2000/svg">
<path fill-rule="evenodd" clip-rule="evenodd" d="M8 9V11.4045H8.00195V15.9895C8.00195 18.7509 10.2405 20.9895 13.002 20.9895L26.0687 20.9894L26.0404 37.3812C26.0378 38.4225 26.5269 39.4039 27.3598 40.0289L34.2646 45.2099V57.6279H34.2363V60.0643H62.9267V57.6279H36.6686V45.2486L43.5425 40.0301C44.3617 39.4082 44.8441 38.4399 44.8471 37.4114L44.8755 20.9894L57.9266 20.9894C60.6881 20.9894 62.9267 18.7508 62.9266 15.9893L62.9265 11.4045H62.9334V9H8ZM10.4383 18.5531L10.4383 11.4045H60.4902V18.5531L10.4383 18.5531ZM28.4694 37.8722L28.505 20.9894L42.4469 20.9894L42.4244 31.6719H33.457V34.1082H42.4192L42.4113 37.8577L35.5183 43.1854L28.4694 37.8722Z" fill="#F2353F"/>
<path d="M15.292 57.6283H26.8517V60.1436H15.292V57.6283Z" fill="#F2353F"/>
<path d="M18.8057 43.9897L17.31 46.0119L26.6036 52.8861L28.0993 50.8639L18.8057 43.9897Z" fill="#F2353F"/>
<path d="M54.0894 46.0119L52.5937 43.9897L43.3001 50.8639L44.7958 52.8861L54.0894 46.0119Z" fill="#F2353F"/>
</svg>
