<svg width="70" height="70" viewBox="0 0 70 70" fill="none" xmlns="http://www.w3.org/2000/svg">
<path d="M24.5497 45.2082C24.5497 46.6856 23.3521 47.8832 21.8747 47.8832C20.3973 47.8832 19.1997 46.6856 19.1997 45.2082C19.1997 43.7308 20.3973 42.5332 21.8747 42.5332C23.3521 42.5332 24.5497 43.7308 24.5497 45.2082Z" fill="#F2353F"/>
<path d="M50.7997 45.2082C50.7997 46.6856 49.6021 47.8832 48.1247 47.8832C46.6473 47.8832 45.4497 46.6856 45.4497 45.2082C45.4497 43.7308 46.6473 42.5332 48.1247 42.5332C49.6021 42.5332 50.7997 43.7308 50.7997 45.2082Z" fill="#F2353F"/>
<path fill-rule="evenodd" clip-rule="evenodd" d="M59.5615 17.4999V24.8056L61.0998 24.9526C61.3972 24.981 61.674 25.0483 61.8932 25.169C62.0801 25.272 62.2617 25.4305 62.3974 25.7537C62.4671 25.9252 62.4965 26.1148 62.4826 26.3088L62.4782 26.3697V32.0832C62.4782 32.7554 61.9345 33.2999 61.2615 33.2999H59.5615V52.4999C59.5615 54.0076 58.7341 55.3289 57.4789 56.0584L56.6332 56.55V61.2499C56.6332 61.9239 56.0906 62.4665 55.4165 62.4665H52.4999C51.8258 62.4665 51.2832 61.9239 51.2832 61.2499V56.6332H18.7165V61.2499C18.7165 61.9239 18.1739 62.4665 17.4999 62.4665H14.5832C13.9092 62.4665 13.3665 61.9239 13.3665 61.2499V56.5431L12.527 56.0504C11.2818 55.3197 10.4615 54.0004 10.4615 52.4999V33.2999H8.74987C8.07694 33.2999 7.5332 32.7554 7.5332 32.0832V26.2499C7.5332 25.6118 8.01973 25.0858 8.65388 25.0353L8.65545 25.0352L8.6971 25.0328C8.73323 25.0308 8.78369 25.0282 8.84051 25.0255L10.4615 24.9501V17.4999C10.4615 12.0046 14.9329 7.5332 20.4282 7.5332H49.5949C55.0901 7.5332 59.5615 12.0046 59.5615 17.4999ZM12.8949 54.1999H57.1165V50.3995L57.1331 36.2165H12.8949V54.1999ZM12.8949 33.7832H33.7949V18.7165H12.8949V33.7832ZM36.2282 33.7832H57.1282V18.7165H36.2282V33.7832ZM12.4463 16.2832H57.5768L56.0859 13.7268C54.7897 11.5042 52.3859 9.96654 49.5949 9.96654H20.4282C17.6372 9.96654 15.2334 11.5042 13.9372 13.7268L12.4463 16.2832Z" fill="#F2353F"/>
</svg>
