<svg width="24" height="24" viewBox="0 0 24 24" fill="none" xmlns="http://www.w3.org/2000/svg">
<path d="M20.2844 10.3559H11.9574V13.8069H16.7494C16.3034 15.9999 14.4364 17.2599 11.9574 17.2599C9.03444 17.2599 6.67844 14.9039 6.67844 11.9799C6.67844 9.05687 9.03444 6.70088 11.9574 6.70088C13.2164 6.70088 14.3544 7.14788 15.2474 7.87888L17.8474 5.27988C16.2634 3.89888 14.2324 3.04688 11.9574 3.04688C7.00344 3.04688 3.02344 7.02588 3.02344 11.9809C3.02344 16.9359 7.00244 20.9149 11.9574 20.9149C16.4244 20.9149 20.4864 17.6659 20.4864 11.9809C20.4864 11.4529 20.4054 10.8839 20.2844 10.3559Z" fill="#FF5050"/>
</svg>
